<?xml version="1.0" encoding="UTF-8" standalone="no"?><!DOCTYPE svg PUBLIC "-//W3C//DTD SVG 1.1//EN" "http://www.w3.org/Graphics/SVG/1.1/DTD/svg11.dtd"><svg width="100%" height="100%" viewBox="0 0 24 24" version="1.1" xmlns="http://www.w3.org/2000/svg" xmlns:xlink="http://www.w3.org/1999/xlink" xml:space="preserve" xmlns:serif="http://www.serif.com/" style="fill-rule:evenodd;clip-rule:evenodd;stroke-linecap:square;stroke-miterlimit:1.5;"><g><path d="M12.159,14.259c-0.253,-0.092 -0.503,-0.348 -0.902,-0.462c-0.624,-0.179 -0.869,-0.381 -0.949,-0.915c0.071,0.045 0.197,0.175 0.315,0.21c0.044,0.013 0.14,-0.034 0.186,-0.022c0.307,0.076 0.565,0.087 0.565,0.087c0.095,0.082 0.095,0.161 0.232,0.231c0.139,0.07 0.381,0.07 0.559,0.069l0.034,0c0.174,0.001 0.395,-0.003 0.525,-0.069c0.138,-0.07 0.138,-0.149 0.232,-0.231c0,0 0.258,-0.011 0.565,-0.087c0.046,-0.012 0.142,0.035 0.186,0.022c0.118,-0.035 0.244,-0.165 0.315,-0.21c-0.08,0.534 -0.325,0.736 -0.949,0.915c-0.402,0.115 -0.653,0.374 -0.908,0.464l-0.006,-0.002Z" style="fill:#00a0e3;"/><path d="M10.695,17.706c0,0 -0.077,2.656 0.06,3.62c0.278,1.95 0.618,2.182 0.618,2.182c0,0 -1.374,-0.674 -1.356,-2.788c0.014,-1.613 0.567,-2.849 0.678,-3.014Z" style="fill:#00a0e3;"/><path d="M9.791,16.801l0.226,0.402c0,0 -0.887,2.263 -0.865,4.023c0.025,1.97 0.096,2.32 0.096,2.32c0,0 -1.348,-1.227 -1.049,-3.32c0.229,-1.597 1.46,-3.275 1.592,-3.425Z" style="fill:#00a0e3;"/><path d="M8.562,14.333c0,0 0.112,0.651 0.267,0.883c0.213,0.322 0.637,0.573 0.637,0.573c0,0 -1.686,1.929 -2.145,4.234c-0.386,1.932 -0.206,3.843 -0.206,3.843c0,0 -1.58,-2.521 -0.521,-6.16c0.451,-1.549 1.836,-3.224 1.968,-3.373Z" style="fill:#00a0e3;"/><path d="M6.904,8.456c0,0 0.106,0.617 0.191,0.883c0.117,0.362 0.337,0.799 0.337,0.799c0,0 -2.213,1.269 -3.509,2.953c-1.202,1.561 -2.007,3.843 -2.007,3.843c0,0 -0.939,-1.982 0.082,-4.428c0.927,-2.223 4.692,-3.982 4.906,-4.05Z" style="fill:#00a0e3;"/><path d="M3.731,5.046c1.218,-0.923 2.257,-0.634 3.701,-0.642c2.656,-0.016 2.939,-0.671 2.939,-0.671c0,0 -1.099,1.719 -4.791,2.275c-1.948,0.293 -3.287,1.431 -3.287,1.431c0,0 0.342,-1.562 1.438,-2.393Z" style="fill:#00a0e3;"/><path d="M6.044,2.603c1.018,-0.295 1.639,0.045 2.485,0.522c0.936,0.527 1.491,0.384 1.491,0.384c0,0 -0.599,0.561 -3.094,0.196c-1.384,-0.203 -2.6,0.478 -2.6,0.478c0,0 0.803,-1.315 1.718,-1.58Z" style="fill:#00a0e3;"/><path d="M7.566,1.543c0.775,-0.002 1.068,0.209 1.486,0.674c0.463,0.514 0.523,0.926 0.523,0.926c0,0 -0.244,-0.291 -1.62,-0.824c-0.899,-0.348 -1.761,-0.164 -1.761,-0.164c0,0 0.759,-0.61 1.372,-0.612Z" style="fill:#00a0e3;"/><path d="M10.13,0.733c0.561,0.506 0.709,0.896 0.708,1.539c0,0.711 -0.251,1.065 -0.251,1.065c0,0 0.014,-0.389 -0.708,-1.745c-0.472,-0.885 -1.301,-1.341 -1.301,-1.341c0,0 0.96,-0.052 1.552,0.482Z" style="fill:#00a0e3;"/><path d="M7.206,11.319l0.443,0.899c0,0 -1.755,1.336 -2.566,2.799c-0.837,1.512 -0.7,3.289 -0.7,3.289c0,0 0.136,-1.426 1.335,-3.32c0.867,-1.37 2.13,-2.331 2.13,-2.331l0.639,1.024c0,0 -2.321,2.084 -3.05,4.611c-0.546,1.893 -0.432,3.542 -0.432,3.542c0,0 -2.785,-3.18 -1.349,-6.688c0.85,-2.078 3.418,-3.676 3.55,-3.825Z" style="fill:#00a0e3;"/><path d="M13.635,17.706c0,0 0.077,2.656 -0.06,3.62c-0.277,1.95 -0.618,2.182 -0.618,2.182c0,0 1.374,-0.674 1.356,-2.788c-0.014,-1.613 -0.567,-2.849 -0.678,-3.014Z" style="fill:#00a0e3;"/><path d="M12.73,17.856l-1.131,0.003c0,0 -0.018,1.314 0.016,1.96c0.103,1.967 0.55,2.483 0.55,2.483c0,0 0.538,-0.536 0.565,-2.486c0.022,-1.613 0,-1.96 0,-1.96Z" style="fill:#00a0e3;"/><path d="M14.539,16.801l-0.226,0.402c0,0 0.887,2.263 0.865,4.023c-0.024,1.97 -0.096,2.32 -0.096,2.32c0,0 1.348,-1.227 1.049,-3.32c-0.229,-1.597 -1.46,-3.275 -1.592,-3.425Z" style="fill:#00a0e3;"/><path d="M15.768,14.333c0,0 -0.112,0.651 -0.266,0.883c-0.214,0.322 -0.638,0.573 -0.638,0.573c0,0 1.686,1.929 2.145,4.234c0.386,1.932 0.206,3.843 0.206,3.843c0,0 1.581,-2.521 0.521,-6.16c-0.451,-1.549 -1.836,-3.224 -1.968,-3.373Z" style="fill:#00a0e3;"/><path d="M17.426,8.456c0,0 -0.106,0.617 -0.191,0.883c-0.116,0.362 -0.337,0.799 -0.337,0.799c0,0 2.213,1.269 3.51,2.953c1.201,1.561 2.006,3.843 2.006,3.843c0,0 0.939,-1.982 -0.082,-4.428c-0.927,-2.223 -4.692,-3.982 -4.906,-4.05Z" style="fill:#00a0e3;"/><path d="M20.599,5.046c-1.218,-0.923 -2.257,-0.634 -3.701,-0.642c-2.656,-0.016 -2.939,-0.671 -2.939,-0.671c0,0 1.099,1.719 4.791,2.275c1.948,0.293 3.287,1.431 3.287,1.431c0,0 -0.342,-1.562 -1.438,-2.393Z" style="fill:#00a0e3;"/><path d="M18.286,2.603c-1.018,-0.295 -1.639,0.045 -2.485,0.522c-0.936,0.527 -1.491,0.384 -1.491,0.384c0,0 0.6,0.561 3.094,0.196c1.384,-0.203 2.6,0.478 2.6,0.478c0,0 -0.803,-1.315 -1.718,-1.58Z" style="fill:#00a0e3;"/><path d="M16.764,1.543c-0.775,-0.002 -1.068,0.209 -1.486,0.674c-0.463,0.514 -0.523,0.926 -0.523,0.926c0,0 0.245,-0.291 1.62,-0.824c0.899,-0.348 1.761,-0.164 1.761,-0.164c0,0 -0.759,-0.61 -1.372,-0.612Z" style="fill:#00a0e3;"/><path d="M14.2,0.733c-0.561,0.506 -0.709,0.896 -0.708,1.539c0,0.711 0.252,1.065 0.252,1.065c0,0 -0.015,-0.389 0.707,-1.745c0.472,-0.885 1.301,-1.341 1.301,-1.341c0,0 -0.96,-0.052 -1.552,0.482Z" style="fill:#00a0e3;"/><path d="M17.124,11.319l-0.442,0.899c0,0 1.754,1.336 2.565,2.799c0.838,1.512 0.7,3.289 0.7,3.289c0,0 -0.136,-1.426 -1.335,-3.32c-0.867,-1.37 -2.13,-2.331 -2.13,-2.331l-0.639,1.024c0,0 2.321,2.084 3.05,4.611c0.546,1.893 0.432,3.542 0.432,3.542c0,0 2.785,-3.18 1.35,-6.688c-0.851,-2.078 -3.419,-3.676 -3.551,-3.825Z" style="fill:#00a0e3;"/><path d="M10.017,12.205c0,0 0.229,-0.667 0.482,-1.312c0.551,-1.403 -0.21,-1.849 -0.441,-2.007c-0.277,-0.189 -0.627,-0.154 -0.627,-0.154l-0.234,-0.113l0.053,0.166l-0.241,0.095l-0.655,0.022l0.586,0.063c0,0 0.089,0.356 0.437,0.555c0.397,0.227 0.983,0.116 0.983,0.116c0,0 0.055,0.329 0.022,0.623c-0.084,0.741 -0.306,1.547 -0.365,1.946Zm-0.32,-3.255c-0.123,-0.026 -0.369,0.071 -0.369,0.071c0,0 0.015,0.361 0.188,0.439c0.337,0.153 0.711,0.027 0.711,0.027c0,0 0.048,-0.148 -0.172,-0.369c-0.017,0.035 -0.147,0.016 -0.173,0.057c-0.05,0.076 -0.001,0.209 -0.07,0.209c-0.129,-0.001 -0.161,-0.19 -0.16,-0.257c0.001,-0.066 0.017,-0.13 0.045,-0.177Z" style="fill:#00a0e3;"/><path d="M14.409,12.205c0,0 -0.229,-0.667 -0.482,-1.312c-0.551,-1.403 0.21,-1.849 0.442,-2.007c0.277,-0.189 0.626,-0.154 0.626,-0.154l0.234,-0.113l-0.052,0.166l0.24,0.095l0.655,0.022l-0.586,0.063c0,0 -0.089,0.356 -0.437,0.555c-0.396,0.227 -0.983,0.116 -0.983,0.116c0,0 -0.055,0.329 -0.022,0.623c0.085,0.741 0.306,1.547 0.365,1.946Zm0.32,-3.255c0.123,-0.026 0.369,0.071 0.369,0.071c0,0 -0.015,0.361 -0.188,0.439c-0.336,0.153 -0.711,0.027 -0.711,0.027c0,0 -0.047,-0.148 0.172,-0.369c0.017,0.035 0.147,0.016 0.173,0.057c0.05,0.076 0.001,0.209 0.07,0.209c0.129,-0.001 0.162,-0.19 0.161,-0.257c-0.001,-0.066 -0.018,-0.13 -0.046,-0.177Z" style="fill:#00a0e3;"/><path d="M14.995,8.734l0.274,0.09c0,0 0.247,-0.292 0.312,-0.375c0.194,-0.245 0.341,-0.589 0.341,-0.589" style="fill:#00a0e3;"/><path d="M9.447,8.734l-0.275,0.09c0,0 -0.247,-0.292 -0.312,-0.375c-0.193,-0.245 -0.34,-0.589 -0.34,-0.589" style="fill:#00a0e3;"/><path d="M12.157,15.805c-0.079,0.001 -0.723,0.01 -1.007,0.147c-0.304,0.147 -0.754,0.705 -0.754,0.705l-0.297,-0.294l0,-0.695c0,0 0.17,0.108 0.209,0.128c0.039,0.019 0.529,0.039 0.92,-0.089c0.391,-0.127 0.694,-0.498 0.695,-0.499l0.484,0c0,0 0.303,0.372 0.695,0.499c0.392,0.128 0.881,0.108 0.92,0.089c0.039,-0.02 0.21,-0.128 0.21,-0.128l0,0.695l-0.298,0.294c0,0 -0.45,-0.558 -0.754,-0.705c-0.303,-0.147 -1.015,-0.147 -1.015,-0.147l-0.008,0Z" style="fill:#00a0e3;"/><path d="M12.165,15.208l0,-1.088" style="fill:#00a0e3;stroke:#00a0e3;stroke-width:0.24px;"/><path d="M9.715,14.86l0.256,0l0.128,0.225l0.638,0l0.117,-0.265l0.255,0" style="fill:#00a0e3;stroke:#00a0e3;stroke-width:0.24px;"/><path d="M13.238,14.86l0.256,0l0.128,0.225l0.638,0l0.118,-0.265l0.254,0" style="fill:#00a0e3;stroke:#00a0e3;stroke-width:0.24px;"/><path d="M10.962,5.016l-0.218,0.846l-0.727,-0.392l-0.497,0.925l-0.578,-0.142l0.003,0.712l-0.72,-0.059l0.023,0.694l-0.466,-0.079l0.141,0.537l-0.491,-0.181c0,0 -0.616,0.257 -3.133,1.371c-1.801,0.797 -3.212,3.014 -3.212,3.014c0,0 -0.111,-2.313 1.89,-4.051c2.069,-1.796 4.659,-1.639 6.907,-3.306c2,-1.483 2.281,-3.834 2.281,-3.834l0.002,0.016c0.029,0.205 0.374,2.405 2.279,3.818c2.248,1.667 4.838,1.51 6.907,3.306c2.001,1.738 1.89,4.051 1.89,4.051c0,0 -1.411,-2.217 -3.212,-3.014c-2.517,-1.114 -3.133,-1.371 -3.133,-1.371l-0.491,0.181l0.141,-0.537l-0.466,0.079l0.023,-0.694l-0.72,0.059l0.003,-0.712l-0.578,0.142l-0.497,-0.925l-0.727,0.392l-0.217,-0.846l-1.204,1.236l-1.203,-1.236Z" style="fill:#00a0e3;"/><path d="M14.108,10.723c0,0 0.432,-0.245 0.801,-0.513c0.355,-0.26 0.928,-0.915 0.928,-0.915c0,0 -0.774,0.594 -1.016,0.734c-0.295,0.171 -0.767,0.381 -0.767,0.381l0.054,0.313Z" style="fill:#00a0e3;"/><path d="M10.34,10.723c0,0 -0.432,-0.245 -0.801,-0.513c-0.356,-0.26 -0.929,-0.915 -0.929,-0.915c0,0 0.775,0.594 1.016,0.734c0.295,0.171 0.768,0.381 0.768,0.381l-0.054,0.313Z" style="fill:#00a0e3;"/></g></svg>