<?xml version="1.0" encoding="UTF-8" standalone="no"?>
<!DOCTYPE svg PUBLIC "-//W3C//DTD SVG 1.1//EN" "http://www.w3.org/Graphics/SVG/1.1/DTD/svg11.dtd">
<svg width="100%" height="100%" viewBox="0 0 123 109" version="1.1" xmlns="http://www.w3.org/2000/svg" xmlns:xlink="http://www.w3.org/1999/xlink" xml:space="preserve" style="fill-rule:evenodd;clip-rule:evenodd;stroke-linecap:square;stroke-miterlimit:1.41421;">
    <g transform="matrix(1,0,0,1,-1408.22,-168.464)">
        <g transform="matrix(1.97579,0,0,7.27393,198.761,-810.18)">
            <g transform="matrix(1,0,0,1,-148.232,0.551704)">
                <g transform="matrix(0.00357079,0,0,0.00096992,825.082,148.427)">
                    <g>
                        <g>
                            <g id="__1962736321536">
                                <g transform="matrix(96.4035,0,0,96.4035,-41205.4,-91452.3)">
                                    <path d="M350.432,855.068C365.084,861.235 375.452,873.756 377.202,890.489C379.764,915.063 362.067,937.075 335.419,939.865C313.381,942.169 295.581,931.298 288.414,912.941L308.484,893.648C308.378,895.251 308.41,895.989 308.584,897.657C309.901,910.26 320.15,920.322 333.552,918.922C347.431,917.48 354.62,905.914 353.261,892.989C352.049,881.4 343.295,871.96 331.465,871.605L350.432,855.068Z" style="fill:white;"/>
                                </g>
                                <g transform="matrix(1,0,0,1,469.856,-452)">
                                    <path d="M-10863,-5909C-10750,-6014 -10540,-6249 -10402,-6358C-10110,-6647 -9924.31,-6773 -9623.31,-7055C-9247.31,-7408 -8920,-7601.52 -8505,-7964.52L-8505,-8284L-5288,-13545L-7912,-13545L-9666,-10461L-11407,-13545L-14080,-13545L-10863,-8248L-10863,-5909Z" style="fill:white;fill-rule:nonzero;"/>
                                </g>
                                <g transform="matrix(1,0,0,1,850.445,-850.445)">
                                    <path d="M-18274,1313L-9840,-6904L-1659,-14035C-1659,-14035 -6885.35,-8856.63 -9587,-6361C-12356.2,-3803 -18274,1313 -18274,1313Z" style="fill-opacity:0.231373;fill-rule:nonzero;"/>
                                </g>
                                <g>
                                    <path d="M-3427,-9155L-3442,-9140C-3550,-9032 -3683,-8979 -3841,-8981C-3999,-8983 -4132,-9038 -4240,-9146C-4348,-9254 -4401,-9386 -4401,-9543C-4400,-9701 -4342,-9837 -4227,-9952C-4112,-10067 -3970,-10122 -3802,-10116L-3716,-10030C-3803,-10047 -3888,-10044 -3972,-10021C-4056,-9998 -4128,-9957 -4187,-9898C-4280,-9804 -4327,-9688 -4327,-9549C-4327,-9411 -4279,-9293 -4183,-9197C-4087,-9101 -3970,-9053 -3831,-9053C-3692,-9053 -3576,-9100 -3482,-9194C-3424,-9253 -3383,-9324 -3360,-9408C-3337,-9492 -3334,-9578 -3352,-9666L-3264,-9578C-3256,-9412 -3310,-9271 -3427,-9155Z" style="fill:white;fill-rule:nonzero;"/>
                                    <path d="M-2755,-9935L-2707,-9888C-2787,-9808 -2883,-9766 -2993,-9763C-3103,-9761 -3199,-9801 -3283,-9884L-4281,-10883L-4227,-10937L-3229,-9939C-3160,-9870 -3080,-9836 -2989,-9836C-2898,-9837 -2820,-9870 -2755,-9935Z" style="fill:white;fill-rule:nonzero;"/>
                                    <path d="M-3484,-11034C-3517,-11001 -3548,-11000 -3579,-11030C-3609,-11061 -3608,-11092 -3576,-11125C-3543,-11158 -3511,-11159 -3481,-11128C-3450,-11098 -3452,-11066 -3484,-11034ZM-3271,-10874L-2511,-10115L-2565,-10060L-3325,-10820L-3271,-10874Z" style="fill:white;fill-rule:nonzero;"/>
                                    <path d="M-1895,-10687L-1910,-10671C-2019,-10563 -2152,-10510 -2310,-10512C-2468,-10515 -2600,-10570 -2708,-10677C-2816,-10785 -2870,-10918 -2869,-11075C-2869,-11232 -2811,-11369 -2695,-11484C-2580,-11599 -2439,-11654 -2271,-11648L-2184,-11562C-2271,-11579 -2357,-11576 -2441,-11552C-2525,-11529 -2596,-11488 -2655,-11430C-2749,-11336 -2795,-11220 -2795,-11081C-2795,-10942 -2747,-10825 -2652,-10729C-2556,-10633 -2438,-10585 -2300,-10585C-2161,-10585 -2045,-10632 -1951,-10726C-1892,-10784 -1851,-10856 -1828,-10940C-1805,-11024 -1802,-11110 -1821,-11198L-1733,-11110C-1725,-10944 -1779,-10803 -1895,-10687Z" style="fill:white;fill-rule:nonzero;"/>
                                    <path d="M-2746,-12411L-2692,-12465L-1924,-11697L-1887,-12262L-1817,-12332L-1861,-11678L-968,-11658L-1040,-11585L-1827,-11601L-1426,-11199L-1480,-11145L-2746,-12411Z" style="fill:white;fill-rule:nonzero;"/>
                                </g>
                            </g>
                        </g>
                    </g>
                </g>
                <g transform="matrix(0.0857544,-0.0218863,0.0805752,0.0232931,537.509,150.908)">
                    <path d="M1456.57,1217.33L1457.66,1217.33C1461.49,1217.33 1464.59,1218.6 1466.94,1221.12C1469.29,1223.64 1470.46,1226.66 1470.46,1230.18C1470.46,1233.71 1469.29,1236.73 1466.95,1239.24C1464.61,1241.75 1461.52,1243 1457.66,1243L1456.57,1243L1456.57,1217.33ZM1457.93,1218.36L1457.66,1218.36L1457.66,1241.94L1457.93,1241.94C1461.27,1241.94 1464,1240.79 1466.13,1238.48C1468.26,1236.18 1469.33,1233.41 1469.33,1230.18C1469.33,1226.96 1468.26,1224.18 1466.13,1221.85C1464,1219.52 1461.27,1218.36 1457.93,1218.36Z" style="fill:white;fill-rule:nonzero;stroke:white;stroke-width:1.29px;"/>
                    <path d="M1476.96,1227.63L1476.96,1243L1475.87,1243L1475.87,1227.63L1476.96,1227.63ZM1476.41,1223.87C1475.75,1223.87 1475.42,1223.56 1475.42,1222.95C1475.42,1222.33 1475.75,1222.02 1476.41,1222.02C1477.08,1222.02 1477.41,1222.33 1477.41,1222.95C1477.41,1223.56 1477.08,1223.87 1476.41,1223.87Z" style="fill:white;fill-rule:nonzero;stroke:white;stroke-width:1.29px;"/>
                    <path d="M1497.19,1227.6L1498.28,1227.6L1498.28,1241.56C1498.28,1244.21 1497.55,1246.3 1496.09,1247.83C1494.63,1249.35 1492.71,1250.12 1490.34,1250.12C1489.04,1250.12 1487.78,1249.82 1486.54,1249.23C1485.31,1248.63 1484.35,1247.86 1483.67,1246.9L1483.67,1245.33C1484.26,1246.42 1485.19,1247.34 1486.46,1248.07C1487.73,1248.8 1489.02,1249.16 1490.34,1249.16C1492.35,1249.16 1493.99,1248.48 1495.27,1247.12C1496.55,1245.77 1497.19,1243.91 1497.19,1241.56L1497.19,1239.27C1496.57,1240.53 1495.6,1241.53 1494.28,1242.28C1492.95,1243.03 1491.59,1243.41 1490.17,1243.41C1487.94,1243.41 1486.02,1242.62 1484.42,1241.03C1482.83,1239.45 1482.03,1237.55 1482.03,1235.33C1482.03,1233.12 1482.83,1231.22 1484.42,1229.64C1486.02,1228.05 1487.94,1227.26 1490.17,1227.26C1491.65,1227.26 1493.04,1227.63 1494.33,1228.37C1495.62,1229.11 1496.57,1230.13 1497.19,1231.43L1497.19,1227.6ZM1483.12,1235.33C1483.12,1237.27 1483.82,1238.94 1485.23,1240.35C1486.63,1241.75 1488.3,1242.45 1490.22,1242.45C1492.15,1242.45 1493.8,1241.75 1495.17,1240.35C1496.54,1238.94 1497.22,1237.27 1497.22,1235.33C1497.22,1233.39 1496.54,1231.72 1495.17,1230.32C1493.8,1228.92 1492.15,1228.22 1490.22,1228.22C1488.3,1228.22 1486.63,1228.92 1485.23,1230.32C1483.82,1231.72 1483.12,1233.39 1483.12,1235.33Z" style="fill:white;fill-rule:nonzero;stroke:white;stroke-width:1.29px;"/>
                    <path d="M1505.3,1227.63L1505.3,1243L1504.2,1243L1504.2,1227.63L1505.3,1227.63ZM1504.75,1223.87C1504.09,1223.87 1503.76,1223.56 1503.76,1222.95C1503.76,1222.33 1504.09,1222.02 1504.75,1222.02C1505.41,1222.02 1505.74,1222.33 1505.74,1222.95C1505.74,1223.56 1505.41,1223.87 1504.75,1223.87Z" style="fill:white;fill-rule:nonzero;stroke:white;stroke-width:1.29px;"/>
                    <path d="M1516.73,1242.25L1516.73,1243.2C1515.11,1243.2 1513.73,1242.66 1512.59,1241.58C1511.45,1240.5 1510.88,1239.11 1510.88,1237.42L1510.88,1221.41L1511.97,1221.41L1511.97,1227.63L1516.69,1227.63L1516.69,1228.59L1511.97,1228.59L1511.97,1237.42C1511.97,1238.81 1512.43,1239.97 1513.36,1240.88C1514.28,1241.79 1515.4,1242.25 1516.73,1242.25Z" style="fill:white;fill-rule:nonzero;stroke:white;stroke-width:1.29px;"/>
                    <path d="M1536.2,1227.6L1536.2,1243L1535.1,1243L1535.1,1239.17C1534.47,1240.47 1533.51,1241.49 1532.23,1242.25C1530.95,1243 1529.58,1243.38 1528.12,1243.38C1525.89,1243.38 1523.97,1242.58 1522.37,1241C1520.78,1239.41 1519.98,1237.51 1519.98,1235.3C1519.98,1233.09 1520.78,1231.19 1522.37,1229.6C1523.97,1228.02 1525.89,1227.22 1528.12,1227.22C1529.58,1227.22 1530.98,1227.61 1532.32,1228.39C1533.65,1229.16 1534.58,1230.19 1535.1,1231.47L1535.1,1227.6L1536.2,1227.6ZM1521.07,1235.33C1521.07,1237.25 1521.78,1238.91 1523.18,1240.31C1524.58,1241.72 1526.25,1242.42 1528.17,1242.42C1530.1,1242.42 1531.75,1241.72 1533.12,1240.31C1534.49,1238.91 1535.17,1237.25 1535.17,1235.32C1535.17,1233.39 1534.48,1231.72 1533.1,1230.3C1531.72,1228.89 1530.07,1228.18 1528.16,1228.18C1526.24,1228.18 1524.58,1228.89 1523.18,1230.32C1521.78,1231.75 1521.07,1233.42 1521.07,1235.33Z" style="fill:white;fill-rule:nonzero;stroke:white;stroke-width:1.29px;"/>
                    <path d="M1547.53,1242.35L1547.53,1243.31C1545.91,1243.31 1544.53,1242.77 1543.38,1241.68C1542.25,1240.6 1541.67,1239.21 1541.67,1237.53L1541.67,1217.33L1542.77,1217.33L1542.77,1237.53C1542.77,1238.92 1543.23,1240.07 1544.15,1240.98C1545.08,1241.89 1546.2,1242.35 1547.53,1242.35Z" style="fill:white;fill-rule:nonzero;stroke:white;stroke-width:1.29px;"/>
                    <path d="M1575.66,1230.85C1576,1229.76 1576.65,1228.88 1577.62,1228.22C1578.59,1227.56 1579.77,1227.22 1581.17,1227.22C1582.56,1227.22 1583.78,1227.73 1584.83,1228.73C1585.88,1229.73 1586.4,1231.09 1586.4,1232.8L1586.4,1243L1585.31,1243L1585.31,1232.8C1585.31,1231.48 1584.87,1230.38 1584.01,1229.5C1583.14,1228.62 1582.1,1228.18 1580.88,1228.18C1579.65,1228.18 1578.57,1228.64 1577.62,1229.55C1576.68,1230.46 1576.2,1231.53 1576.2,1232.73L1576.2,1243L1575.11,1243L1575.11,1232.73C1575.11,1231.5 1574.67,1230.43 1573.81,1229.53C1572.94,1228.63 1571.89,1228.18 1570.66,1228.18C1569.43,1228.18 1568.36,1228.64 1567.44,1229.55C1566.53,1230.46 1566.07,1231.53 1566.07,1232.73L1566.07,1243L1564.98,1243L1564.98,1227.6L1566.07,1227.6L1566.07,1229.76C1566.53,1229.07 1567.21,1228.48 1568.11,1227.98C1569.01,1227.48 1569.95,1227.22 1570.92,1227.22C1571.89,1227.22 1572.82,1227.56 1573.7,1228.23C1574.6,1228.91 1575.25,1229.78 1575.66,1230.85Z" style="fill:white;fill-rule:nonzero;stroke:white;stroke-width:1.29px;"/>
                    <path d="M1607.24,1227.6L1607.24,1243L1606.15,1243L1606.15,1239.17C1605.51,1240.47 1604.55,1241.49 1603.27,1242.25C1602,1243 1600.63,1243.38 1599.17,1243.38C1596.93,1243.38 1595.01,1242.58 1593.42,1241C1591.82,1239.41 1591.02,1237.51 1591.02,1235.3C1591.02,1233.09 1591.82,1231.19 1593.42,1229.6C1595.01,1228.02 1596.93,1227.22 1599.17,1227.22C1600.63,1227.22 1602.02,1227.61 1603.36,1228.39C1604.69,1229.16 1605.62,1230.19 1606.15,1231.47L1606.15,1227.6L1607.24,1227.6ZM1592.12,1235.33C1592.12,1237.25 1592.82,1238.91 1594.22,1240.31C1595.62,1241.72 1597.29,1242.42 1599.22,1242.42C1601.14,1242.42 1602.79,1241.72 1604.16,1240.31C1605.53,1238.91 1606.22,1237.25 1606.22,1235.32C1606.22,1233.39 1605.53,1231.72 1604.14,1230.3C1602.77,1228.89 1601.12,1228.18 1599.2,1228.18C1597.28,1228.18 1595.62,1228.89 1594.22,1230.32C1592.82,1231.75 1592.12,1233.42 1592.12,1235.33Z" style="fill:white;fill-rule:nonzero;stroke:white;stroke-width:1.29px;"/>
                    <path d="M1621.72,1229.69C1620.71,1228.68 1619.61,1228.18 1618.4,1228.18C1617.19,1228.18 1616.12,1228.64 1615.2,1229.55C1614.27,1230.46 1613.81,1231.53 1613.81,1232.73L1613.81,1243L1612.72,1243L1612.72,1227.6L1613.81,1227.6L1613.81,1229.89C1614.22,1229.12 1614.86,1228.48 1615.73,1227.98C1616.6,1227.48 1617.57,1227.22 1618.64,1227.22C1619.71,1227.22 1620.74,1227.59 1621.72,1228.32L1621.72,1229.69Z" style="fill:white;fill-rule:nonzero;stroke:white;stroke-width:1.29px;"/>
                    <path d="M1626,1217.4L1627.09,1217.4L1627.09,1232.94L1633.18,1227.6L1634.59,1227.6L1627.54,1233.76L1636.36,1243L1634.89,1243L1627.09,1234.89L1627.09,1243L1626,1243L1626,1217.4Z" style="fill:white;fill-rule:nonzero;stroke:white;stroke-width:1.29px;"/>
                    <path d="M1646.49,1243.41L1646.19,1243.41C1644.02,1243.41 1642.13,1242.6 1640.52,1240.96C1638.91,1239.33 1638.11,1237.43 1638.11,1235.27C1638.11,1233.1 1638.91,1231.22 1640.51,1229.64C1642.1,1228.05 1644.08,1227.26 1646.42,1227.26C1648.78,1227.26 1650.79,1228.19 1652.48,1230.06L1641.74,1240.67C1643.22,1241.86 1644.65,1242.45 1646.01,1242.45C1647.38,1242.45 1648.61,1242.14 1649.69,1241.51C1650.78,1240.88 1651.67,1240.05 1652.38,1239L1652.38,1240.74C1650.76,1242.52 1648.8,1243.41 1646.49,1243.41ZM1646.13,1228.22C1644.32,1228.22 1642.71,1228.92 1641.31,1230.32C1639.91,1231.72 1639.2,1233.34 1639.2,1235.16C1639.2,1236.99 1639.81,1238.59 1641.02,1239.95L1650.98,1230.06C1649.56,1228.83 1647.95,1228.22 1646.13,1228.22Z" style="fill:white;fill-rule:nonzero;stroke:white;stroke-width:1.29px;"/>
                    <path d="M1662.61,1242.25L1662.61,1243.2C1660.99,1243.2 1659.61,1242.66 1658.47,1241.58C1657.33,1240.5 1656.76,1239.11 1656.76,1237.42L1656.76,1221.41L1657.86,1221.41L1657.86,1227.63L1662.58,1227.63L1662.58,1228.59L1657.86,1228.59L1657.86,1237.42C1657.86,1238.81 1658.32,1239.97 1659.24,1240.88C1660.16,1241.79 1661.29,1242.25 1662.61,1242.25Z" style="fill:white;fill-rule:nonzero;stroke:white;stroke-width:1.29px;"/>
                    <path d="M1668.26,1227.63L1668.26,1243L1667.16,1243L1667.16,1227.63L1668.26,1227.63ZM1667.71,1223.87C1667.05,1223.87 1666.72,1223.56 1666.72,1222.95C1666.72,1222.33 1667.05,1222.02 1667.71,1222.02C1668.37,1222.02 1668.7,1222.33 1668.7,1222.95C1668.7,1223.56 1668.37,1223.87 1667.71,1223.87Z" style="fill:white;fill-rule:nonzero;stroke:white;stroke-width:1.29px;"/>
                    <path d="M1675.27,1243L1674.18,1243L1674.18,1227.6L1675.27,1227.6L1675.27,1230.71C1676.44,1228.39 1678.42,1227.22 1681.23,1227.22C1683.14,1227.22 1684.75,1227.89 1686.05,1229.21C1687.35,1230.53 1688,1232.14 1688,1234.03L1688,1243L1686.91,1243L1686.91,1234.03C1686.91,1232.46 1686.36,1231.09 1685.25,1229.93C1684.14,1228.76 1682.8,1228.18 1681.23,1228.18C1679.65,1228.18 1678.27,1228.76 1677.07,1229.93C1675.87,1231.09 1675.27,1232.46 1675.27,1234.03L1675.27,1243Z" style="fill:white;fill-rule:nonzero;stroke:white;stroke-width:1.29px;"/>
                    <path d="M1707.78,1227.6L1708.88,1227.6L1708.88,1241.56C1708.88,1244.21 1708.15,1246.3 1706.69,1247.83C1705.23,1249.35 1703.31,1250.12 1700.94,1250.12C1699.64,1250.12 1698.37,1249.82 1697.14,1249.23C1695.91,1248.63 1694.95,1247.86 1694.27,1246.9L1694.27,1245.33C1694.86,1246.42 1695.79,1247.34 1697.06,1248.07C1698.32,1248.8 1699.62,1249.16 1700.94,1249.16C1702.95,1249.16 1704.59,1248.48 1705.87,1247.12C1707.14,1245.77 1707.78,1243.91 1707.78,1241.56L1707.78,1239.27C1707.17,1240.53 1706.2,1241.53 1704.88,1242.28C1703.55,1243.03 1702.18,1243.41 1700.77,1243.41C1698.53,1243.41 1696.62,1242.62 1695.02,1241.03C1693.42,1239.45 1692.62,1237.55 1692.62,1235.33C1692.62,1233.12 1693.42,1231.22 1695.02,1229.64C1696.62,1228.05 1698.53,1227.26 1700.77,1227.26C1702.25,1227.26 1703.64,1227.63 1704.93,1228.37C1706.22,1229.11 1707.17,1230.13 1707.78,1231.43L1707.78,1227.6ZM1693.72,1235.33C1693.72,1237.27 1694.42,1238.94 1695.82,1240.35C1697.23,1241.75 1698.89,1242.45 1700.82,1242.45C1702.75,1242.45 1704.4,1241.75 1705.76,1240.35C1707.13,1238.94 1707.82,1237.27 1707.82,1235.33C1707.82,1233.39 1707.13,1231.72 1705.76,1230.32C1704.4,1228.92 1702.75,1228.22 1700.82,1228.22C1698.89,1228.22 1697.23,1228.92 1695.82,1230.32C1694.42,1231.72 1693.72,1233.39 1693.72,1235.33Z" style="fill:white;fill-rule:nonzero;stroke:white;stroke-width:1.29px;"/>
                </g>
            </g>
        </g>
    </g>
</svg>
