<?xml version="1.0" encoding="UTF-8" standalone="no"?><!DOCTYPE svg PUBLIC "-//W3C//DTD SVG 1.1//EN" "http://www.w3.org/Graphics/SVG/1.1/DTD/svg11.dtd"><svg width="100%" height="100%" viewBox="0 0 158 140" version="1.1" xmlns="http://www.w3.org/2000/svg" xmlns:xlink="http://www.w3.org/1999/xlink" xml:space="preserve" style="fill-rule:evenodd;clip-rule:evenodd;stroke-linecap:square;stroke-miterlimit:1.41421;"><g><g><g><g id="__1962736321536"><path d="M97.524,53.496c12.884,5.423 22.001,16.434 23.54,31.148c2.253,21.61 -13.308,40.966 -36.742,43.42c-19.379,2.026 -35.032,-7.534 -41.334,-23.676l17.648,-16.966c-0.093,1.41 -0.065,2.059 0.088,3.526c1.158,11.082 10.171,19.93 21.956,18.699c12.205,-1.268 18.526,-11.439 17.331,-22.804c-1.065,-10.191 -8.763,-18.493 -19.166,-18.805l16.679,-14.542Z" style="fill:#34495d;"/><path d="M70.427,77.758c1.031,-0.958 2.946,-3.102 4.205,-4.096c2.664,-2.636 4.357,-3.786 7.103,-6.358c3.43,-3.22 6.415,-4.985 10.201,-8.296l0,-2.915l29.344,-47.989l-23.935,0l-15.999,28.131l-15.881,-28.131l-24.383,0l29.345,48.318l0,21.336Z" style="fill:#34495d;fill-rule:nonzero;"/><path d="M6.298,140l76.932,-74.953l74.625,-65.047c0,0 -47.674,47.236 -72.317,70c-25.26,23.333 -79.24,70 -79.24,70Z" style="fill-opacity:0.231373;fill-rule:nonzero;"/><g><path d="M133.97,52.271l-0.137,0.137c-0.985,0.985 -2.198,1.469 -3.639,1.451c-1.442,-0.019 -2.655,-0.52 -3.64,-1.505c-0.985,-0.986 -1.469,-2.19 -1.469,-3.622c0.01,-1.441 0.539,-2.682 1.588,-3.731c1.049,-1.049 2.344,-1.55 3.876,-1.496l0.785,0.785c-0.794,-0.155 -1.569,-0.128 -2.335,0.082c-0.767,0.21 -1.423,0.584 -1.961,1.122c-0.849,0.857 -1.277,1.916 -1.277,3.184c0,1.258 0.437,2.335 1.313,3.21c0.876,0.876 1.943,1.314 3.211,1.314c1.268,0 2.326,-0.429 3.183,-1.286c0.529,-0.538 0.903,-1.186 1.113,-1.952c0.21,-0.767 0.237,-1.551 0.073,-2.354l0.803,0.803c0.073,1.514 -0.42,2.8 -1.487,3.858Z" style="fill:#34495d;fill-rule:nonzero;"/><path d="M140.1,45.157l0.438,0.428c-0.73,0.73 -1.606,1.113 -2.609,1.14c-1.004,0.019 -1.879,-0.346 -2.645,-1.103l-9.104,-9.113l0.493,-0.492l9.103,9.103c0.63,0.629 1.359,0.94 2.189,0.94c0.83,-0.01 1.542,-0.311 2.135,-0.903Z" style="fill:#34495d;fill-rule:nonzero;"/><path d="M133.45,35.132c-0.301,0.301 -0.584,0.31 -0.866,0.036c-0.274,-0.283 -0.265,-0.565 0.027,-0.866c0.301,-0.301 0.593,-0.31 0.866,-0.028c0.283,0.274 0.265,0.566 -0.027,0.858Zm1.943,1.459l6.933,6.924l-0.493,0.501l-6.933,-6.932l0.493,-0.493Z" style="fill:#34495d;fill-rule:nonzero;"/><path d="M147.944,38.297l-0.136,0.146c-0.995,0.985 -2.208,1.469 -3.649,1.45c-1.441,-0.027 -2.645,-0.529 -3.63,-1.505c-0.986,-0.985 -1.478,-2.198 -1.469,-3.63c0,-1.432 0.529,-2.682 1.587,-3.731c1.049,-1.049 2.335,-1.551 3.868,-1.496l0.793,0.785c-0.793,-0.156 -1.578,-0.128 -2.344,0.091c-0.766,0.21 -1.414,0.584 -1.952,1.113c-0.857,0.857 -1.277,1.915 -1.277,3.183c0,1.268 0.438,2.335 1.304,3.211c0.876,0.876 1.952,1.313 3.211,1.313c1.268,0 2.326,-0.428 3.184,-1.286c0.538,-0.529 0.912,-1.186 1.122,-1.952c0.209,-0.766 0.237,-1.55 0.064,-2.353l0.802,0.803c0.073,1.514 -0.419,2.8 -1.478,3.858Z" style="fill:#34495d;fill-rule:nonzero;"/><path d="M140.182,22.571l0.492,-0.492l7.006,7.005l0.337,-5.154l0.639,-0.638l-0.401,5.965l8.145,0.183l-0.656,0.666l-7.179,-0.146l3.658,3.667l-0.493,0.492l-11.548,-11.548Z" style="fill:#34495d;fill-rule:nonzero;"/></g></g></g></g><g><path d="M0.26,125.974l0.24,-0.226c0.839,-0.789 1.776,-1.149 2.81,-1.08c1.033,0.068 1.913,0.489 2.638,1.261c0.726,0.772 1.091,1.674 1.095,2.705c0.004,1.031 -0.416,1.943 -1.26,2.737l-0.24,0.225l-5.283,-5.622Zm0.511,-0.057l-0.06,0.056l4.853,5.165l0.06,-0.056c0.73,-0.686 1.091,-1.5 1.084,-2.444c-0.007,-0.944 -0.343,-1.77 -1.007,-2.477c-0.664,-0.707 -1.47,-1.096 -2.416,-1.166c-0.946,-0.071 -1.784,0.236 -2.514,0.922Z" style="fill:#34495d;fill-rule:nonzero;stroke:#34495d;stroke-width:0.3px;"/><path d="M6.848,124.032l3.163,3.366l-0.24,0.225l-3.163,-3.366l0.24,-0.225Zm-0.895,-0.712c-0.145,0.136 -0.281,0.137 -0.407,0.002c-0.127,-0.135 -0.118,-0.27 0.027,-0.407c0.145,-0.136 0.281,-0.136 0.407,-0.002c0.127,0.135 0.118,0.271 -0.027,0.407Z" style="fill:#34495d;fill-rule:nonzero;stroke:#34495d;stroke-width:0.3px;"/><path d="M11.271,119.862l0.24,-0.226l2.874,3.059c0.545,0.58 0.815,1.187 0.809,1.823c-0.005,0.635 -0.267,1.197 -0.787,1.685c-0.285,0.268 -0.623,0.463 -1.015,0.587c-0.392,0.124 -0.762,0.151 -1.109,0.082l-0.324,-0.345c0.355,0.118 0.747,0.127 1.174,0.026c0.428,-0.101 0.787,-0.287 1.077,-0.56c0.439,-0.413 0.66,-0.9 0.66,-1.46c0.001,-0.56 -0.241,-1.098 -0.725,-1.613l-0.472,-0.502c0.124,0.402 0.118,0.821 -0.017,1.258c-0.135,0.438 -0.357,0.802 -0.667,1.093c-0.49,0.46 -1.073,0.681 -1.749,0.662c-0.676,-0.018 -1.242,-0.27 -1.698,-0.755c-0.455,-0.484 -0.671,-1.065 -0.648,-1.741c0.024,-0.676 0.28,-1.244 0.77,-1.704c0.325,-0.306 0.705,-0.51 1.14,-0.612c0.435,-0.103 0.854,-0.076 1.256,0.082l-0.789,-0.839Zm-1.489,4.589c0.399,0.425 0.897,0.646 1.493,0.665c0.596,0.019 1.106,-0.171 1.528,-0.567c0.422,-0.397 0.639,-0.89 0.65,-1.479c0.011,-0.589 -0.183,-1.096 -0.582,-1.521c-0.399,-0.425 -0.893,-0.65 -1.482,-0.676c-0.589,-0.025 -1.094,0.16 -1.516,0.557c-0.423,0.397 -0.643,0.893 -0.662,1.489c-0.018,0.597 0.172,1.107 0.571,1.532Z" style="fill:#34495d;fill-rule:nonzero;stroke:#34495d;stroke-width:0.3px;"/><path d="M13.055,118.2l3.163,3.366l-0.24,0.225l-3.163,-3.366l0.24,-0.225Zm-0.895,-0.712c-0.145,0.136 -0.28,0.137 -0.407,0.002c-0.127,-0.135 -0.118,-0.271 0.027,-0.407c0.145,-0.136 0.281,-0.137 0.408,-0.002c0.126,0.135 0.117,0.271 -0.028,0.407Z" style="fill:#34495d;fill-rule:nonzero;stroke:#34495d;stroke-width:0.3px;"/><path d="M18.567,119.048l0.197,0.21c-0.355,0.334 -0.769,0.499 -1.242,0.496c-0.473,-0.002 -0.883,-0.188 -1.23,-0.558l-3.297,-3.509l0.24,-0.225l1.282,1.364l1.034,-0.972l0.198,0.21l-1.035,0.972l1.817,1.934c0.287,0.305 0.625,0.462 1.015,0.472c0.391,0.01 0.731,-0.121 1.021,-0.394Z" style="fill:#34495d;fill-rule:nonzero;stroke:#34495d;stroke-width:0.3px;"/><path d="M19.817,111.832l3.17,3.373l-0.24,0.226l-0.789,-0.84c0.128,0.416 0.129,0.838 0.005,1.266c-0.125,0.428 -0.348,0.792 -0.668,1.093c-0.489,0.46 -1.072,0.681 -1.749,0.662c-0.676,-0.018 -1.242,-0.27 -1.697,-0.755c-0.456,-0.485 -0.672,-1.065 -0.648,-1.741c0.023,-0.676 0.28,-1.244 0.77,-1.704c0.32,-0.301 0.706,-0.504 1.158,-0.608c0.452,-0.105 0.867,-0.072 1.245,0.1l-0.796,-0.847l0.239,-0.225Zm-1.721,4.807c0.394,0.42 0.89,0.639 1.486,0.658c0.596,0.018 1.105,-0.171 1.527,-0.567c0.423,-0.397 0.639,-0.89 0.651,-1.479c0.011,-0.589 -0.182,-1.095 -0.579,-1.517c-0.397,-0.423 -0.892,-0.647 -1.486,-0.673c-0.593,-0.025 -1.1,0.159 -1.52,0.553c-0.419,0.395 -0.636,0.893 -0.65,1.494c-0.014,0.601 0.176,1.112 0.571,1.531Z" style="fill:#34495d;fill-rule:nonzero;stroke:#34495d;stroke-width:0.3px;"/><path d="M25.335,112.731l0.197,0.21c-0.355,0.334 -0.769,0.499 -1.242,0.496c-0.473,-0.002 -0.883,-0.188 -1.23,-0.558l-4.156,-4.423l0.24,-0.226l4.155,4.423c0.287,0.305 0.625,0.462 1.016,0.472c0.39,0.01 0.73,-0.121 1.02,-0.394Z" style="fill:#34495d;fill-rule:nonzero;stroke:#34495d;stroke-width:0.3px;"/><path d="M29.13,104.422c-0.15,-0.31 -0.187,-0.637 -0.111,-0.982c0.076,-0.344 0.267,-0.66 0.571,-0.946c0.305,-0.287 0.676,-0.428 1.112,-0.424c0.437,0.004 0.831,0.193 1.184,0.568l2.099,2.234l-0.24,0.225l-2.099,-2.234c-0.273,-0.289 -0.594,-0.441 -0.965,-0.455c-0.371,-0.014 -0.69,0.104 -0.957,0.356c-0.267,0.251 -0.411,0.574 -0.43,0.969c-0.02,0.394 0.095,0.724 0.343,0.989l2.114,2.249l-0.24,0.225l-2.113,-2.249c-0.254,-0.269 -0.568,-0.414 -0.944,-0.433c-0.375,-0.019 -0.698,0.099 -0.968,0.352c-0.27,0.254 -0.411,0.574 -0.423,0.962c-0.012,0.388 0.107,0.714 0.356,0.979l2.113,2.249l-0.24,0.225l-3.17,-3.373l0.24,-0.225l0.444,0.472c-0.041,-0.244 -0.015,-0.514 0.079,-0.809c0.095,-0.296 0.248,-0.543 0.46,-0.743c0.213,-0.199 0.486,-0.317 0.819,-0.353c0.333,-0.035 0.655,0.022 0.966,0.172Z" style="fill:#34495d;fill-rule:nonzero;stroke:#34495d;stroke-width:0.3px;"/><path d="M35.38,97.209l3.17,3.373l-0.24,0.226l-0.789,-0.84c0.128,0.416 0.129,0.839 0.004,1.266c-0.124,0.428 -0.347,0.793 -0.667,1.093c-0.489,0.46 -1.072,0.681 -1.749,0.662c-0.676,-0.018 -1.242,-0.27 -1.697,-0.755c-0.456,-0.484 -0.672,-1.065 -0.648,-1.741c0.023,-0.676 0.28,-1.244 0.77,-1.704c0.319,-0.301 0.705,-0.504 1.157,-0.608c0.452,-0.105 0.867,-0.072 1.245,0.1l-0.796,-0.847l0.24,-0.225Zm-1.721,4.807c0.394,0.42 0.889,0.639 1.486,0.658c0.596,0.019 1.105,-0.171 1.527,-0.567c0.423,-0.397 0.639,-0.89 0.65,-1.479c0.011,-0.589 -0.181,-1.095 -0.578,-1.517c-0.397,-0.423 -0.892,-0.647 -1.486,-0.672c-0.593,-0.026 -1.1,0.158 -1.52,0.553c-0.419,0.394 -0.636,0.892 -0.65,1.493c-0.014,0.601 0.176,1.112 0.571,1.531Z" style="fill:#34495d;fill-rule:nonzero;stroke:#34495d;stroke-width:0.3px;"/><path d="M38.981,94.687c-0.427,-0.014 -0.772,0.104 -1.037,0.353c-0.265,0.249 -0.405,0.568 -0.419,0.958c-0.015,0.391 0.102,0.718 0.351,0.983l2.113,2.249l-0.24,0.225l-3.169,-3.373l0.24,-0.226l0.472,0.503c-0.07,-0.255 -0.062,-0.526 0.025,-0.815c0.087,-0.288 0.247,-0.543 0.482,-0.763c0.235,-0.221 0.535,-0.352 0.9,-0.394l0.282,0.3Z" style="fill:#34495d;fill-rule:nonzero;stroke:#34495d;stroke-width:0.3px;"/><path d="M37.389,91.115l0.24,-0.226l3.198,3.404l0.236,-2.423l0.307,-0.289l-0.276,2.8l3.836,0.207l-0.323,0.303l-3.378,-0.171l1.669,1.777l-0.24,0.225l-5.269,-5.607Z" style="fill:#34495d;fill-rule:nonzero;stroke:#34495d;stroke-width:0.3px;"/><path d="M47.233,92.593l-0.067,0.063c-0.475,0.446 -1.057,0.656 -1.745,0.63c-0.688,-0.026 -1.255,-0.277 -1.701,-0.751c-0.446,-0.475 -0.657,-1.051 -0.634,-1.727c0.024,-0.676 0.293,-1.256 0.807,-1.739c0.515,-0.484 1.15,-0.695 1.905,-0.632l-0.17,4.535c0.569,-0.045 1.003,-0.209 1.303,-0.49c0.3,-0.282 0.504,-0.603 0.612,-0.964c0.108,-0.36 0.132,-0.728 0.071,-1.104l0.359,0.383c0.012,0.723 -0.235,1.322 -0.74,1.796Zm-3.206,-3.255c-0.397,0.374 -0.605,0.859 -0.624,1.455c-0.018,0.596 0.16,1.094 0.536,1.494c0.375,0.399 0.837,0.625 1.383,0.676l0.146,-4.216c-0.563,0.021 -1.044,0.218 -1.441,0.591Z" style="fill:#34495d;fill-rule:nonzero;stroke:#34495d;stroke-width:0.3px;"/><path d="M50.524,89.02l0.198,0.21c-0.355,0.334 -0.769,0.499 -1.242,0.497c-0.473,-0.003 -0.883,-0.189 -1.231,-0.559l-3.296,-3.508l0.24,-0.226l1.282,1.365l1.034,-0.973l0.198,0.21l-1.035,0.972l1.817,1.935c0.287,0.304 0.625,0.462 1.015,0.471c0.391,0.01 0.731,-0.121 1.02,-0.394Z" style="fill:#34495d;fill-rule:nonzero;stroke:#34495d;stroke-width:0.3px;"/><path d="M48.754,84.657l3.162,3.366l-0.24,0.226l-3.162,-3.366l0.24,-0.226Zm-0.895,-0.712c-0.145,0.136 -0.281,0.137 -0.408,0.002c-0.126,-0.135 -0.117,-0.27 0.028,-0.407c0.145,-0.136 0.28,-0.136 0.407,-0.001c0.127,0.135 0.118,0.27 -0.027,0.406Z" style="fill:#34495d;fill-rule:nonzero;stroke:#34495d;stroke-width:0.3px;"/><path d="M53.453,86.579l-0.24,0.226l-3.169,-3.374l0.239,-0.225l0.641,0.682c-0.224,-0.749 -0.028,-1.413 0.586,-1.99c0.42,-0.395 0.909,-0.581 1.466,-0.559c0.557,0.022 1.031,0.241 1.42,0.656l1.846,1.964l-0.24,0.225l-1.845,-1.964c-0.324,-0.345 -0.727,-0.531 -1.209,-0.558c-0.482,-0.027 -0.896,0.122 -1.24,0.446c-0.345,0.324 -0.529,0.736 -0.552,1.238c-0.023,0.501 0.128,0.924 0.452,1.269l1.845,1.964Z" style="fill:#34495d;fill-rule:nonzero;stroke:#34495d;stroke-width:0.3px;"/><path d="M57.405,76.514l0.24,-0.225l2.874,3.058c0.545,0.58 0.814,1.188 0.809,1.823c-0.005,0.635 -0.268,1.197 -0.787,1.686c-0.285,0.267 -0.624,0.463 -1.016,0.587c-0.392,0.123 -0.761,0.151 -1.108,0.081l-0.324,-0.344c0.355,0.117 0.747,0.126 1.174,0.025c0.428,-0.1 0.787,-0.287 1.076,-0.559c0.44,-0.414 0.66,-0.9 0.661,-1.461c0,-0.56 -0.241,-1.098 -0.725,-1.612l-0.472,-0.503c0.123,0.402 0.118,0.822 -0.017,1.259c-0.135,0.437 -0.358,0.801 -0.667,1.093c-0.49,0.46 -1.073,0.681 -1.749,0.662c-0.677,-0.019 -1.242,-0.27 -1.698,-0.755c-0.455,-0.485 -0.671,-1.065 -0.648,-1.741c0.024,-0.677 0.28,-1.245 0.77,-1.705c0.325,-0.305 0.705,-0.509 1.14,-0.612c0.435,-0.103 0.853,-0.075 1.256,0.083l-0.789,-0.84Zm-1.489,4.589c0.399,0.425 0.897,0.647 1.493,0.665c0.596,0.019 1.105,-0.17 1.528,-0.567c0.422,-0.397 0.639,-0.89 0.65,-1.479c0.011,-0.589 -0.183,-1.096 -0.582,-1.521c-0.4,-0.424 -0.893,-0.65 -1.482,-0.675c-0.589,-0.026 -1.094,0.16 -1.517,0.556c-0.422,0.397 -0.642,0.894 -0.661,1.49c-0.018,0.596 0.172,1.107 0.571,1.531Z" style="fill:#34495d;fill-rule:nonzero;stroke:#34495d;stroke-width:0.3px;"/></g></g></svg>